<svg width="60" height="36" viewBox="0 0 60 36" fill="none" xmlns="http://www.w3.org/2000/svg">
<rect width="60" height="36" rx="8" fill="#9675CE"/>
<path d="M21.4821 21.728H16.8261L16.0261 24H14.1221L18.1061 12.864H20.2181L24.2021 24H22.2821L21.4821 21.728ZM20.9701 20.24L19.1621 15.072L17.3381 20.24H20.9701ZM25.3264 19.552C25.3264 18.6667 25.5077 17.8827 25.8704 17.2C26.2437 16.5173 26.745 15.9893 27.3744 15.616C28.0144 15.232 28.7237 15.04 29.5024 15.04C30.0784 15.04 30.6437 15.168 31.1984 15.424C31.7637 15.6693 32.2117 16 32.5424 16.416V12.16H34.3824V24H32.5424V22.672C32.2437 23.0987 31.8277 23.4507 31.2944 23.728C30.7717 24.0053 30.169 24.144 29.4864 24.144C28.7184 24.144 28.0144 23.952 27.3744 23.568C26.745 23.1733 26.2437 22.6293 25.8704 21.936C25.5077 21.232 25.3264 20.4373 25.3264 19.552ZM32.5424 19.584C32.5424 18.976 32.4144 18.448 32.1584 18C31.913 17.552 31.5877 17.2107 31.1824 16.976C30.777 16.7413 30.3397 16.624 29.8704 16.624C29.401 16.624 28.9637 16.7413 28.5584 16.976C28.153 17.2 27.8224 17.536 27.5664 17.984C27.321 18.4213 27.1984 18.944 27.1984 19.552C27.1984 20.16 27.321 20.6933 27.5664 21.152C27.8224 21.6107 28.153 21.9627 28.5584 22.208C28.9744 22.4427 29.4117 22.56 29.8704 22.56C30.3397 22.56 30.777 22.4427 31.1824 22.208C31.5877 21.9733 31.913 21.632 32.1584 21.184C32.4144 20.7253 32.5424 20.192 32.5424 19.584ZM36.1701 19.552C36.1701 18.6667 36.3515 17.8827 36.7141 17.2C37.0875 16.5173 37.5888 15.9893 38.2181 15.616C38.8581 15.232 39.5675 15.04 40.3461 15.04C40.9221 15.04 41.4875 15.168 42.0421 15.424C42.6075 15.6693 43.0555 16 43.3861 16.416V12.16H45.2261V24H43.3861V22.672C43.0875 23.0987 42.6715 23.4507 42.1381 23.728C41.6155 24.0053 41.0128 24.144 40.3301 24.144C39.5621 24.144 38.8581 23.952 38.2181 23.568C37.5888 23.1733 37.0875 22.6293 36.7141 21.936C36.3515 21.232 36.1701 20.4373 36.1701 19.552ZM43.3861 19.584C43.3861 18.976 43.2581 18.448 43.0021 18C42.7568 17.552 42.4315 17.2107 42.0261 16.976C41.6208 16.7413 41.1835 16.624 40.7141 16.624C40.2448 16.624 39.8075 16.7413 39.4021 16.976C38.9968 17.2 38.6661 17.536 38.4101 17.984C38.1648 18.4213 38.0421 18.944 38.0421 19.552C38.0421 20.16 38.1648 20.6933 38.4101 21.152C38.6661 21.6107 38.9968 21.9627 39.4021 22.208C39.8181 22.4427 40.2555 22.56 40.7141 22.56C41.1835 22.56 41.6208 22.4427 42.0261 22.208C42.4315 21.9733 42.7568 21.632 43.0021 21.184C43.2581 20.7253 43.3861 20.192 43.3861 19.584Z" fill="white"/>
</svg>
