<svg width="20" height="21" viewBox="0 0 20 21" fill="none" xmlns="http://www.w3.org/2000/svg">
<path d="M14.1667 19.4583H5.83332C2.15832 19.4583 1.04166 18.3417 1.04166 14.6667V6.33334C1.04166 2.65834 2.15832 1.54167 5.83332 1.54167H7.08332C8.54166 1.54167 8.99999 2.01667 9.58332 2.79167L10.8333 4.45834C11.1083 4.82501 11.15 4.87501 11.6667 4.87501H14.1667C17.8417 4.87501 18.9583 5.99167 18.9583 9.66667V14.6667C18.9583 18.3417 17.8417 19.4583 14.1667 19.4583ZM5.83332 2.79167C2.84999 2.79167 2.29166 3.35834 2.29166 6.33334V14.6667C2.29166 17.6417 2.84999 18.2083 5.83332 18.2083H14.1667C17.15 18.2083 17.7083 17.6417 17.7083 14.6667V9.66667C17.7083 6.69167 17.15 6.12501 14.1667 6.12501H11.6667C10.6 6.12501 10.25 5.75834 9.83332 5.20834L8.58332 3.54167C8.14999 2.96667 8.01666 2.79167 7.08332 2.79167H5.83332Z" fill="#475569"/>
<path d="M16.6667 6.44167C16.325 6.44167 16.0417 6.15834 16.0417 5.81667V4.66667C16.0417 3.35001 15.4833 2.79167 14.1667 2.79167H6.66666C6.32499 2.79167 6.04166 2.50834 6.04166 2.16667C6.04166 1.82501 6.32499 1.54167 6.66666 1.54167H14.1667C16.1833 1.54167 17.2917 2.65 17.2917 4.66667V5.81667C17.2917 6.15834 17.0083 6.44167 16.6667 6.44167Z" fill="#475569"/>
</svg>
