<svg width="17" height="17" viewBox="0 0 17 17" fill="none" xmlns="http://www.w3.org/2000/svg">
<g clip-path="url(#clip0_1_1452)">
<path d="M14.313 7.90419L8.18316 14.0277C7.43221 14.7778 6.41401 15.199 5.35255 15.1984C4.2911 15.1978 3.27333 14.7756 2.52316 14.0247C1.77299 13.2737 1.35186 12.2555 1.35242 11.1941C1.35298 10.1326 1.77517 9.11486 2.52612 8.36469L8.656 2.24123C9.15663 1.74112 9.83543 1.46037 10.5431 1.46074C11.2507 1.46111 11.9292 1.74257 12.4293 2.24321C12.9294 2.74384 13.2102 3.42264 13.2098 4.13028C13.2095 4.83792 12.928 5.51643 12.4274 6.01654L6.29082 12.14C6.0405 12.3901 5.7011 12.5304 5.34728 12.5302C4.99346 12.5301 4.65421 12.3893 4.40415 12.139C4.15409 11.8887 4.01372 11.5493 4.0139 11.1955C4.01409 10.8417 4.15482 10.5024 4.40514 10.2523L10.0681 4.60197" stroke="#94A3B8" stroke-width="1.5" stroke-linecap="round" stroke-linejoin="round"/>
</g>
<defs>
<clipPath id="clip0_1_1452">
<rect width="16" height="16" fill="white" transform="translate(0.0235596 0.530029) rotate(0.0299684)"/>
</clipPath>
</defs>
</svg>
