<svg width="17" height="17" viewBox="0 0 17 17" fill="none" xmlns="http://www.w3.org/2000/svg">
<path d="M5.34332 1.34784L5.34228 3.34784" stroke="#94A3B8" stroke-width="1.2" stroke-miterlimit="10" stroke-linecap="round" stroke-linejoin="round"/>
<path d="M10.6766 1.35065L10.6756 3.35065" stroke="#94A3B8" stroke-width="1.2" stroke-miterlimit="10" stroke-linecap="round" stroke-linejoin="round"/>
<path d="M2.34082 6.07294L13.6742 6.07886" stroke="#94A3B8" stroke-width="1.2" stroke-miterlimit="10" stroke-linecap="round" stroke-linejoin="round"/>
<path d="M14.0077 5.68568L14.0048 11.3523C14.0037 13.3523 13.003 14.6852 10.6697 14.6839L5.33634 14.6811C3.00301 14.6799 2.00371 13.3461 2.00475 11.3461L2.00772 5.6794C2.00876 3.6794 3.00946 2.34659 5.34279 2.34781L10.6761 2.3506C13.0095 2.35182 14.0088 3.68568 14.0077 5.68568Z" stroke="#94A3B8" stroke-width="1.2" stroke-miterlimit="10" stroke-linecap="round" stroke-linejoin="round"/>
<path d="M8.0029 9.14918L8.00889 9.14918" stroke="#94A3B8" stroke-width="1.2" stroke-linecap="round" stroke-linejoin="round"/>
<path d="M5.53543 9.1479L5.54142 9.1479" stroke="#94A3B8" stroke-width="1.2" stroke-linecap="round" stroke-linejoin="round"/>
<path d="M5.53439 11.1479L5.54038 11.1479" stroke="#94A3B8" stroke-width="1.2" stroke-linecap="round" stroke-linejoin="round"/>
</svg>
