<svg width="24" height="24" viewBox="0 0 24 24" fill="none" xmlns="http://www.w3.org/2000/svg">
<path d="M15.26 22.25H8.74001C3.83001 22.25 1.73001 20.15 1.73001 15.24V15.11C1.73001 10.67 3.48001 8.53003 7.40001 8.16003C7.80001 8.13003 8.18001 8.43003 8.22001 8.84003C8.26001 9.25003 7.96001 9.62003 7.54001 9.66003C4.40001 9.95003 3.23001 11.43 3.23001 15.12V15.25C3.23001 19.32 4.67001 20.76 8.74001 20.76H15.26C19.33 20.76 20.77 19.32 20.77 15.25V15.12C20.77 11.41 19.58 9.93003 16.38 9.66003C15.97 9.62003 15.66 9.26003 15.7 8.85003C15.74 8.44003 16.09 8.13003 16.51 8.17003C20.49 8.51003 22.27 10.66 22.27 15.13V15.26C22.27 20.15 20.17 22.25 15.26 22.25Z" fill="#0F172A"/>
<path d="M12 15.75C11.59 15.75 11.25 15.41 11.25 15V3.62C11.25 3.21 11.59 2.87 12 2.87C12.41 2.87 12.75 3.21 12.75 3.62V15C12.75 15.41 12.41 15.75 12 15.75Z" fill="#0F172A"/>
<path d="M15.35 6.6C15.16 6.6 14.97 6.53 14.82 6.38L12 3.56L9.18 6.38C8.89 6.67 8.41 6.67 8.12 6.38C7.83 6.09 7.83 5.61 8.12 5.32L11.47 1.97C11.76 1.68 12.24 1.68 12.53 1.97L15.88 5.32C16.17 5.61 16.17 6.09 15.88 6.38C15.74 6.53 15.54 6.6 15.35 6.6Z" fill="#0F172A"/>
</svg>
