<svg width="20" height="21" viewBox="0 0 20 21" fill="none" xmlns="http://www.w3.org/2000/svg">
<path d="M13.9582 3.46669V2.16669C13.9582 1.82502 13.6749 1.54169 13.3332 1.54169C12.9915 1.54169 12.7082 1.82502 12.7082 2.16669V3.41669H7.29153V2.16669C7.29153 1.82502 7.0082 1.54169 6.66653 1.54169C6.32487 1.54169 6.04153 1.82502 6.04153 2.16669V3.46669C3.79153 3.67502 2.69987 5.01669 2.5332 7.00835C2.51653 7.25002 2.71653 7.45002 2.94987 7.45002H17.0499C17.2915 7.45002 17.4915 7.24169 17.4665 7.00835C17.2999 5.01669 16.2082 3.67502 13.9582 3.46669Z" fill="#9675CE"/>
<path d="M16.6667 8.70003H3.33333C2.875 8.70003 2.5 9.07503 2.5 9.53336V14.6667C2.5 17.1667 3.75 18.8334 6.66667 18.8334H13.3333C16.25 18.8334 17.5 17.1667 17.5 14.6667V9.53336C17.5 9.07503 17.125 8.70003 16.6667 8.70003ZM7.675 15.675C7.63333 15.7084 7.59167 15.75 7.55 15.775C7.5 15.8084 7.45 15.8334 7.4 15.85C7.35 15.875 7.3 15.8917 7.25 15.9C7.19167 15.9084 7.14167 15.9167 7.08333 15.9167C6.975 15.9167 6.86667 15.8917 6.76667 15.85C6.65833 15.8084 6.575 15.75 6.49167 15.675C6.34167 15.5167 6.25 15.3 6.25 15.0834C6.25 14.8667 6.34167 14.65 6.49167 14.4917C6.575 14.4167 6.65833 14.3584 6.76667 14.3167C6.91667 14.25 7.08333 14.2334 7.25 14.2667C7.3 14.275 7.35 14.2917 7.4 14.3167C7.45 14.3334 7.5 14.3584 7.55 14.3917C7.59167 14.425 7.63333 14.4584 7.675 14.4917C7.825 14.65 7.91667 14.8667 7.91667 15.0834C7.91667 15.3 7.825 15.5167 7.675 15.675ZM7.675 12.7584C7.51667 12.9084 7.3 13 7.08333 13C6.86667 13 6.65 12.9084 6.49167 12.7584C6.34167 12.6 6.25 12.3834 6.25 12.1667C6.25 11.95 6.34167 11.7334 6.49167 11.575C6.725 11.3417 7.09167 11.2667 7.4 11.4C7.50833 11.4417 7.6 11.5 7.675 11.575C7.825 11.7334 7.91667 11.95 7.91667 12.1667C7.91667 12.3834 7.825 12.6 7.675 12.7584ZM10.5917 15.675C10.4333 15.825 10.2167 15.9167 10 15.9167C9.78333 15.9167 9.56667 15.825 9.40833 15.675C9.25833 15.5167 9.16667 15.3 9.16667 15.0834C9.16667 14.8667 9.25833 14.65 9.40833 14.4917C9.71667 14.1834 10.2833 14.1834 10.5917 14.4917C10.7417 14.65 10.8333 14.8667 10.8333 15.0834C10.8333 15.3 10.7417 15.5167 10.5917 15.675ZM10.5917 12.7584C10.55 12.7917 10.5083 12.825 10.4667 12.8584C10.4167 12.8917 10.3667 12.9167 10.3167 12.9334C10.2667 12.9584 10.2167 12.975 10.1667 12.9834C10.1083 12.9917 10.0583 13 10 13C9.78333 13 9.56667 12.9084 9.40833 12.7584C9.25833 12.6 9.16667 12.3834 9.16667 12.1667C9.16667 11.95 9.25833 11.7334 9.40833 11.575C9.48333 11.5 9.575 11.4417 9.68333 11.4C9.99167 11.2667 10.3583 11.3417 10.5917 11.575C10.7417 11.7334 10.8333 11.95 10.8333 12.1667C10.8333 12.3834 10.7417 12.6 10.5917 12.7584ZM13.5083 15.675C13.35 15.825 13.1333 15.9167 12.9167 15.9167C12.7 15.9167 12.4833 15.825 12.325 15.675C12.175 15.5167 12.0833 15.3 12.0833 15.0834C12.0833 14.8667 12.175 14.65 12.325 14.4917C12.6333 14.1834 13.2 14.1834 13.5083 14.4917C13.6583 14.65 13.75 14.8667 13.75 15.0834C13.75 15.3 13.6583 15.5167 13.5083 15.675ZM13.5083 12.7584C13.4667 12.7917 13.425 12.825 13.3833 12.8584C13.3333 12.8917 13.2833 12.9167 13.2333 12.9334C13.1833 12.9584 13.1333 12.975 13.0833 12.9834C13.025 12.9917 12.9667 13 12.9167 13C12.7 13 12.4833 12.9084 12.325 12.7584C12.175 12.6 12.0833 12.3834 12.0833 12.1667C12.0833 11.95 12.175 11.7334 12.325 11.575C12.4083 11.5 12.4917 11.4417 12.6 11.4C12.75 11.3334 12.9167 11.3167 13.0833 11.35C13.1333 11.3584 13.1833 11.375 13.2333 11.4C13.2833 11.4167 13.3333 11.4417 13.3833 11.475C13.425 11.5084 13.4667 11.5417 13.5083 11.575C13.6583 11.7334 13.75 11.95 13.75 12.1667C13.75 12.3834 13.6583 12.6 13.5083 12.7584Z" fill="#9675CE"/>
</svg>
