<svg width="17" height="17" viewBox="0 0 17 17" fill="none" xmlns="http://www.w3.org/2000/svg">
<path d="M8.02354 11.3853C6.27687 11.3853 4.85687 9.96531 4.85687 8.21865L4.85687 4.55198C4.85687 2.80532 6.27687 1.38531 8.02354 1.38531C9.77021 1.38531 11.1902 2.80532 11.1902 4.55198L11.1902 8.21865C11.1902 9.96531 9.77021 11.3853 8.02354 11.3853ZM8.02354 2.38531C6.83021 2.38531 5.85687 3.35865 5.85687 4.55198L5.85687 8.21865C5.85687 9.41198 6.83021 10.3853 8.02354 10.3853C9.21687 10.3853 10.1902 9.41198 10.1902 8.21865L10.1902 4.55198C10.1902 3.35865 9.21687 2.38531 8.02354 2.38531Z" fill="#94A3B8"/>
<path d="M8.02352 13.7187C4.93686 13.7187 2.42352 11.2054 2.42352 8.11869L2.42352 6.98535C2.42352 6.71202 2.65019 6.48535 2.92352 6.48535C3.19686 6.48535 3.42352 6.71202 3.42352 6.98535L3.42352 8.11869C3.42352 10.652 5.49019 12.7187 8.02352 12.7187C10.5569 12.7187 12.6235 10.652 12.6235 8.11869L12.6235 6.98535C12.6235 6.71202 12.8502 6.48535 13.1235 6.48535C13.3969 6.48535 13.6235 6.71202 13.6235 6.98535L13.6235 8.11869C13.6235 11.2054 11.1102 13.7187 8.02352 13.7187Z" fill="#94A3B8"/>
<path d="M8.9502 5.33867C8.89686 5.33867 8.83686 5.33201 8.77686 5.31201C8.2902 5.13201 7.75686 5.13201 7.2702 5.31201C7.0102 5.40534 6.72353 5.27201 6.6302 5.01201C6.53686 4.75201 6.67019 4.46534 6.93019 4.37201C7.63686 4.11867 8.41686 4.11867 9.12353 4.37201C9.38353 4.46534 9.51686 4.75201 9.42353 5.01201C9.34353 5.21201 9.1502 5.33867 8.9502 5.33867Z" fill="#94A3B8"/>
<path d="M8.55686 6.75201C8.5102 6.75201 8.4702 6.74534 8.42353 6.73201C8.15686 6.65867 7.88353 6.65867 7.61686 6.73201C7.3502 6.80534 7.07686 6.64534 7.00353 6.37867C6.9302 6.11867 7.0902 5.84534 7.35686 5.77201C7.7902 5.65201 8.25686 5.65201 8.6902 5.77201C8.95686 5.84534 9.11686 6.11867 9.04353 6.38534C8.98353 6.60534 8.77686 6.75201 8.55686 6.75201Z" fill="#94A3B8"/>
<path d="M8.02353 15.7187C7.7502 15.7187 7.52353 15.492 7.52353 15.2187L7.52353 13.2187C7.52353 12.9454 7.7502 12.7187 8.02353 12.7187C8.29686 12.7187 8.52353 12.9454 8.52353 13.2187L8.52353 15.2187C8.52353 15.492 8.29686 15.7187 8.02353 15.7187Z" fill="#94A3B8"/>
</svg>
