<svg width="20" height="21" viewBox="0 0 20 21" fill="none" xmlns="http://www.w3.org/2000/svg">
<path d="M15.8333 7.79167C14.1083 7.79167 12.7083 6.39167 12.7083 4.66667C12.7083 2.94167 14.1083 1.54167 15.8333 1.54167C17.5583 1.54167 18.9583 2.94167 18.9583 4.66667C18.9583 6.39167 17.5583 7.79167 15.8333 7.79167ZM15.8333 2.79167C14.8 2.79167 13.9583 3.63334 13.9583 4.66667C13.9583 5.70001 14.8 6.54167 15.8333 6.54167C16.8667 6.54167 17.7083 5.70001 17.7083 4.66667C17.7083 3.63334 16.8667 2.79167 15.8333 2.79167Z" fill="#475569"/>
<path d="M10 11.9583H5.83334C5.49168 11.9583 5.20834 11.675 5.20834 11.3333C5.20834 10.9917 5.49168 10.7083 5.83334 10.7083H10C10.3417 10.7083 10.625 10.9917 10.625 11.3333C10.625 11.675 10.3417 11.9583 10 11.9583Z" fill="#475569"/>
<path d="M13.3333 15.2917H5.83334C5.49168 15.2917 5.20834 15.0083 5.20834 14.6667C5.20834 14.325 5.49168 14.0417 5.83334 14.0417H13.3333C13.675 14.0417 13.9583 14.325 13.9583 14.6667C13.9583 15.0083 13.675 15.2917 13.3333 15.2917Z" fill="#475569"/>
<path d="M12.5 19.4583H7.49999C2.97499 19.4583 1.04166 17.525 1.04166 13V8.00001C1.04166 3.47501 2.97499 1.54167 7.49999 1.54167H11.6667C12.0083 1.54167 12.2917 1.82501 12.2917 2.16667C12.2917 2.50834 12.0083 2.79167 11.6667 2.79167H7.49999C3.65832 2.79167 2.29166 4.15834 2.29166 8.00001V13C2.29166 16.8417 3.65832 18.2083 7.49999 18.2083H12.5C16.3417 18.2083 17.7083 16.8417 17.7083 13V8.83334C17.7083 8.49167 17.9917 8.20834 18.3333 8.20834C18.675 8.20834 18.9583 8.49167 18.9583 8.83334V13C18.9583 17.525 17.025 19.4583 12.5 19.4583Z" fill="#475569"/>
</svg>
