<svg width="24" height="24" viewBox="0 0 24 24" fill="none" xmlns="http://www.w3.org/2000/svg">
<path d="M23.707 22.293L17.738 16.324C19.3646 14.3346 20.1643 11.7961 19.9718 9.23359C19.7793 6.67106 18.6092 4.28056 16.7036 2.55655C14.7979 0.832537 12.3026 -0.0930816 9.73361 -0.0288498C7.16466 0.035382 4.71867 1.08455 2.90158 2.90164C1.08449 4.71873 0.035321 7.16472 -0.0289109 9.73367C-0.0931427 12.3026 0.832476 14.798 2.55649 16.7036C4.2805 18.6092 6.671 19.7793 9.23353 19.9719C11.7961 20.1644 14.3346 19.3647 16.324 17.738L22.293 23.707C22.4816 23.8892 22.7342 23.99 22.9964 23.9877C23.2586 23.9854 23.5094 23.8803 23.6948 23.6948C23.8802 23.5094 23.9854 23.2586 23.9876 22.9964C23.9899 22.7342 23.8891 22.4816 23.707 22.293ZM9.99997 18C8.41772 18 6.871 17.5308 5.5554 16.6518C4.23981 15.7727 3.21443 14.5233 2.60893 13.0615C2.00343 11.5997 1.845 9.99115 2.15368 8.4393C2.46236 6.88746 3.22429 5.46199 4.34311 4.34317C5.46193 3.22435 6.88739 2.46243 8.43924 2.15374C9.99109 1.84506 11.5996 2.00349 13.0614 2.60899C14.5232 3.21449 15.7727 4.23987 16.6517 5.55546C17.5308 6.87106 18 8.41778 18 10C17.9976 12.121 17.154 14.1545 15.6542 15.6543C14.1544 17.154 12.121 17.9976 9.99997 18Z" fill="#0F172A"/>
</svg>
