<svg width="20" height="21" viewBox="0 0 20 21" fill="none" xmlns="http://www.w3.org/2000/svg">
<path d="M14.6834 8.51666H10.3083C9.96668 8.51666 9.68335 8.23333 9.68335 7.89166C9.68335 7.55 9.96668 7.26666 10.3083 7.26666H14.6834C15.025 7.26666 15.3084 7.55 15.3084 7.89166C15.3084 8.23333 15.0334 8.51666 14.6834 8.51666Z" fill="#475569"/>
<path d="M5.93334 9.15C5.77501 9.15 5.61667 9.09167 5.49167 8.96667L4.86667 8.34167C4.62501 8.1 4.62501 7.7 4.86667 7.45833C5.10834 7.21667 5.50834 7.21667 5.75001 7.45833L5.93334 7.64167L7.36667 6.20833C7.60834 5.96667 8.00834 5.96667 8.25001 6.20833C8.49167 6.45 8.49167 6.85 8.25001 7.09167L6.37501 8.96667C6.25834 9.08333 6.10001 9.15 5.93334 9.15Z" fill="#475569"/>
<path d="M14.6834 14.35H10.3083C9.96668 14.35 9.68335 14.0667 9.68335 13.725C9.68335 13.3833 9.96668 13.1 10.3083 13.1H14.6834C15.025 13.1 15.3084 13.3833 15.3084 13.725C15.3084 14.0667 15.0334 14.35 14.6834 14.35Z" fill="#475569"/>
<path d="M5.93334 14.9833C5.77501 14.9833 5.61667 14.925 5.49167 14.8L4.86667 14.175C4.62501 13.9333 4.62501 13.5333 4.86667 13.2917C5.10834 13.05 5.50834 13.05 5.75001 13.2917L5.93334 13.475L7.36667 12.0417C7.60834 11.8 8.00834 11.8 8.25001 12.0417C8.49167 12.2833 8.49167 12.6833 8.25001 12.925L6.37501 14.8C6.25834 14.9167 6.10001 14.9833 5.93334 14.9833Z" fill="#475569"/>
<path d="M12.5 19.4583H7.50002C2.97502 19.4583 1.04169 17.525 1.04169 13V8.00001C1.04169 3.47501 2.97502 1.54167 7.50002 1.54167H12.5C17.025 1.54167 18.9584 3.47501 18.9584 8.00001V13C18.9584 17.525 17.025 19.4583 12.5 19.4583ZM7.50002 2.79167C3.65835 2.79167 2.29169 4.15834 2.29169 8.00001V13C2.29169 16.8417 3.65835 18.2083 7.50002 18.2083H12.5C16.3417 18.2083 17.7084 16.8417 17.7084 13V8.00001C17.7084 4.15834 16.3417 2.79167 12.5 2.79167H7.50002Z" fill="#475569"/>
</svg>
